<?xml version="1.0" standalone="no"?>
<!DOCTYPE svg PUBLIC "-//W3C//DTD SVG 20010904//EN"
 "http://www.w3.org/TR/2001/REC-SVG-20010904/DTD/svg10.dtd">
<svg version="1.0" xmlns="http://www.w3.org/2000/svg"
 width="50.000000pt" height="50.000000pt" viewBox="0 0 50.000000 50.000000"
 preserveAspectRatio="xMidYMid meet">

<g transform="translate(0.000000,50.000000) scale(0.100000,-0.100000)"
fill="#000000" stroke="none">
<path d="M148 334 c-65 -33 -85 -58 -55 -70 7 -2 38 6 67 20 50 23 54 24 66 8
8 -9 14 -22 14 -28 0 -6 -34 -32 -75 -58 l-76 -46 -37 17 c-20 9 -40 19 -44
21 -5 2 -8 -1 -8 -7 0 -18 80 -52 134 -58 33 -3 74 1 116 12 115 31 133 31
233 -10 9 -4 17 -3 17 2 0 14 -67 43 -116 50 -24 3 -44 10 -44 16 0 18 -102
167 -114 167 -6 -1 -41 -17 -78 -36z"/>
<path d="M366 304 c-31 -30 -9 -84 34 -84 24 0 50 26 50 50 0 24 -26 50 -50
50 -10 0 -26 -7 -34 -16z"/>
</g>
</svg>
