<?xml version="1.0" standalone="no"?>
<!DOCTYPE svg PUBLIC "-//W3C//DTD SVG 20010904//EN"
 "http://www.w3.org/TR/2001/REC-SVG-20010904/DTD/svg10.dtd">
<svg version="1.0" xmlns="http://www.w3.org/2000/svg"
 width="50.000000pt" height="50.000000pt" viewBox="0 0 50.000000 50.000000"
 preserveAspectRatio="xMidYMid meet">

<g transform="translate(0.000000,50.000000) scale(0.100000,-0.100000)"
fill="#000000" stroke="none">
<path d="M217 452 c-33 -36 -8 -92 40 -92 25 0 53 30 53 57 0 46 -62 69 -93
35z"/>
<path d="M162 315 c-16 -14 -33 -36 -36 -50 -4 -15 -24 -34 -51 -51 -29 -16
-45 -33 -45 -45 0 -53 86 -20 132 51 27 41 29 42 23 15 -4 -16 -9 -44 -12 -61
-3 -23 -16 -37 -49 -57 -25 -15 -47 -34 -50 -42 -10 -26 16 -45 61 -45 38 0
42 2 38 23 -2 12 1 28 6 36 14 21 141 42 141 22 0 -4 -28 -12 -62 -17 -58 -8
-63 -11 -63 -34 0 -25 0 -25 111 -28 90 -2 113 0 124 13 18 22 6 42 -45 73
-33 19 -45 33 -45 50 0 13 -5 32 -11 43 -21 40 -2 43 23 4 42 -66 128 -97 128
-46 0 12 -16 29 -45 45 -27 17 -47 36 -51 51 -3 14 -20 36 -36 50 -25 21 -40
25 -93 25 -53 0 -68 -4 -93 -25z m125 -121 c2 -6 -5 -18 -15 -27 -18 -16 -20
-16 -36 2 -10 11 -15 24 -12 30 8 13 58 9 63 -5z"/>
</g>
</svg>
